<svg width="630" height="377" viewBox="0 0 630 377" fill="none" xmlns="http://www.w3.org/2000/svg">
<g clip-path="url(#clip0_23_78)">
<path d="M482.343 372.737C474.277 365.915 469.378 355.139 470.663 344.648C471.948 334.157 479.905 324.513 490.228 322.285C500.55 320.057 512.317 326.224 515.452 336.317C517.178 316.858 519.166 296.585 529.502 280.014C538.861 265.01 555.07 254.273 572.638 252.353C590.205 250.432 608.702 257.686 619.658 271.565C630.614 285.444 633.297 305.62 625.623 321.554C619.971 333.292 609.556 342.028 598.644 349.134C563.385 371.906 521.095 381.166 479.557 375.211L482.343 372.737Z" fill="#F2F2F2"/>
<path d="M602.286 258.088C587.79 269.906 574.492 283.123 562.584 297.549C543.948 320.047 528.867 345.272 517.867 372.344C517.062 374.319 520.266 375.179 521.062 373.226C539.06 329.227 567.791 290.448 604.629 260.433C606.283 259.085 603.926 256.751 602.286 258.088Z" fill="white"/>
<path d="M202.807 370.883C213.885 361.514 220.614 346.712 218.85 332.303C217.085 317.894 206.155 304.647 191.977 301.588C177.8 298.528 161.638 306.998 157.332 320.86C154.962 294.134 152.231 266.288 138.034 243.528C125.18 222.92 102.916 208.174 78.7871 205.536C54.658 202.898 29.2532 212.861 14.2047 231.924C-0.843691 250.986 -4.52823 278.699 6.01129 300.584C13.7754 316.706 28.0796 328.704 43.0668 338.465C90.8813 369.607 150.195 382.595 206.633 374.281" fill="#F2F2F2"/>
<path d="M38.0656 213.414C57.975 229.645 76.2399 247.799 92.5959 267.612C108.955 287.405 123.357 308.74 135.6 331.316C142.443 343.98 148.59 357.009 154.015 370.344C155.121 373.057 150.72 374.238 149.626 371.555C140.019 348.045 128.132 325.535 114.137 304.346C100.21 283.234 84.2698 263.524 66.5403 245.493C56.5124 235.299 45.9322 225.665 34.8475 216.635C32.5754 214.783 35.8123 211.577 38.0656 213.414Z" fill="white"/>
<path d="M452.224 376.175H187.914V104.735C187.914 46.9836 234.854 0 292.552 0H347.586C405.284 0 452.224 46.9836 452.224 104.735V376.175Z" fill="#F2F2F2"/>
<path d="M397.19 376.175H187.914V104.735C187.856 82.6058 194.857 61.0362 207.897 43.1664C208.378 42.5106 208.857 41.8633 209.352 41.223C215.659 32.9429 223.165 25.6507 231.622 19.5871C232.099 19.2392 232.579 18.8974 233.066 18.5555C240.142 13.6539 247.797 9.647 255.856 6.6259C256.335 6.44435 256.822 6.26243 257.309 6.08795C264.598 3.4845 272.153 1.70115 279.836 0.770823C280.312 0.705699 280.801 0.654738 281.29 0.603777C288.777 -0.197475 296.328 -0.197475 303.815 0.603777C304.302 0.654738 304.791 0.705692 305.273 0.771519C312.954 1.7019 320.508 3.48504 327.794 6.08798C328.282 6.26247 328.769 6.44437 329.249 6.62628C337.208 9.60927 344.773 13.5564 351.774 18.3796C352.261 18.7141 352.747 19.0559 353.227 19.3978C357.967 22.7847 362.42 26.5578 366.539 30.6787C369.843 33.9841 372.921 37.5075 375.754 41.2252C376.246 41.8633 376.726 42.5106 377.206 43.1653C390.246 61.0354 397.247 82.6053 397.19 104.735V376.175Z" fill="#CCCCCC"/>
<path d="M380.172 254.77C386.571 254.77 391.759 249.577 391.759 243.173C391.759 236.768 386.571 231.576 380.172 231.576C373.774 231.576 368.586 236.768 368.586 243.173C368.586 249.577 373.774 254.77 380.172 254.77Z" fill="#080808"/>
<path d="M430.572 368.045H421.694L417.47 333.77L430.573 333.771L430.572 368.045Z" fill="#FFB8B8"/>
<path d="M415.352 365.505H432.474V376.296H404.572C404.572 374.879 404.851 373.476 405.393 372.166C405.934 370.857 406.729 369.668 407.73 368.666C408.731 367.664 409.919 366.869 411.227 366.327C412.535 365.785 413.937 365.505 415.352 365.505Z" fill="#2F2E41"/>
<path d="M474.744 368.045H465.866L461.642 333.77L474.746 333.771L474.744 368.045Z" fill="#FFB8B8"/>
<path d="M459.525 365.505H476.646V376.296H448.745C448.745 374.879 449.023 373.476 449.565 372.166C450.107 370.857 450.901 369.668 451.902 368.666C452.903 367.664 454.091 366.869 455.399 366.327C456.707 365.785 458.109 365.505 459.525 365.505Z" fill="#2F2E41"/>
<path d="M386.036 245.47C385.398 244.528 384.973 243.458 384.792 242.334C384.612 241.21 384.68 240.06 384.991 238.965C385.302 237.87 385.85 236.857 386.595 235.997C387.34 235.137 388.264 234.451 389.302 233.987L419.481 150.731L434.331 158.842L399.874 238.405C400.537 240.203 400.518 242.182 399.82 243.967C399.123 245.752 397.796 247.218 396.09 248.089C394.384 248.96 392.419 249.175 390.566 248.692C388.713 248.209 387.101 247.063 386.036 245.47Z" fill="#FFB8B8"/>
<path d="M470.209 261.114C469.223 260.548 468.372 259.772 467.717 258.841C467.063 257.911 466.62 256.847 466.42 255.727C466.22 254.606 466.269 253.455 466.561 252.355C466.854 251.255 467.384 250.233 468.114 249.36L458.765 161.29L475.665 162.062L479.55 248.692C480.934 250.016 481.784 251.803 481.939 253.714C482.094 255.624 481.544 257.525 480.392 259.056C479.241 260.587 477.568 261.642 475.692 262.022C473.815 262.401 471.864 262.078 470.209 261.114Z" fill="#FFB8B8"/>
<path d="M443.249 135.31C453.072 135.31 461.035 127.339 461.035 117.508C461.035 107.676 453.072 99.7055 443.249 99.7055C433.426 99.7055 425.464 107.676 425.464 117.508C425.464 127.339 433.426 135.31 443.249 135.31Z" fill="#FFB8B8"/>
<path d="M470.096 241.084H416.475L416.54 240.667C416.636 240.042 426.096 178.015 419.119 157.723C418.419 155.729 418.481 153.546 419.292 151.594C420.103 149.643 421.607 148.061 423.514 147.152C433.487 142.452 452.63 136.664 468.788 150.711C471.165 152.812 473.022 155.438 474.211 158.381C475.4 161.324 475.888 164.504 475.638 167.668L470.096 241.084Z" fill="#080808"/>
<path d="M426.774 187.182L402.634 182.28L413.949 155.44C414.626 152.841 416.306 150.616 418.62 149.254C420.933 147.893 423.692 147.505 426.291 148.177C428.889 148.848 431.116 150.524 432.482 152.836C433.848 155.149 434.242 157.909 433.577 160.512L426.774 187.182Z" fill="#080808"/>
<path d="M457.692 196.284L456.24 162.985C455.14 156.725 458.72 150.808 464.226 149.841C469.733 148.877 475.111 153.218 476.216 159.524L481.671 190.638L457.692 196.284Z" fill="#080808"/>
<path d="M468.312 237.098C476.939 269.987 477.881 311.803 475.553 357.416L463.967 355.966L442.967 268.989L431.381 357.416L418.346 356.691C414.452 308.832 410.661 267.746 416.898 240.722L468.312 237.098Z" fill="#181823"/>
<path d="M454.968 131.265C451.65 134.803 445.488 132.904 445.056 128.071C445.022 127.696 445.024 127.318 445.063 126.944C445.286 124.803 446.522 122.859 446.226 120.599C446.159 120.036 445.95 119.5 445.618 119.041C442.974 115.497 436.767 120.626 434.272 117.418C432.742 115.451 434.54 112.354 433.366 110.155C431.816 107.253 427.226 108.685 424.348 107.096C421.145 105.328 421.337 100.409 423.445 97.4177C426.016 93.7693 430.524 91.8225 434.975 91.5419C439.427 91.2614 443.848 92.4659 448.004 94.087C452.727 95.929 457.409 98.4747 460.315 102.631C463.849 107.685 464.189 114.48 462.422 120.39C461.347 123.985 457.677 128.377 454.968 131.265Z" fill="#181823"/>
<path d="M608.263 376.641H73.6358C73.4076 376.64 73.1889 376.549 73.0278 376.387C72.8666 376.226 72.7761 376.007 72.7761 375.778C72.7761 375.55 72.8666 375.331 73.0278 375.169C73.1889 375.007 73.4076 374.916 73.6358 374.915H608.263C608.491 374.916 608.709 375.007 608.871 375.169C609.032 375.331 609.122 375.55 609.122 375.778C609.122 376.007 609.032 376.226 608.871 376.387C608.709 376.549 608.491 376.64 608.263 376.641Z" fill="#3F3D56"/>
<path d="M339.621 297.533H245.483C244.243 297.54 243.051 297.054 242.169 296.182C241.286 295.311 240.785 294.124 240.776 292.883V82.5666C240.785 81.3257 241.286 80.1392 242.169 79.2675C243.051 78.3958 244.243 77.91 245.483 77.9167H339.621C340.86 77.91 342.052 78.3958 342.935 79.2675C343.817 80.1392 344.318 81.3257 344.328 82.5666V292.883C344.318 294.124 343.817 295.311 342.935 296.182C342.052 297.054 340.86 297.54 339.621 297.533Z" fill="white"/>
<path d="M344.328 145.969H240.776V147.418H344.328V145.969Z" fill="#CCCCCC"/>
<path d="M344.69 228.677H241.138V230.126H344.69V228.677Z" fill="#CCCCCC"/>
<path d="M274.81 77.9167H273.362V298.258H274.81V77.9167Z" fill="#CCCCCC"/>
<path d="M311.017 77.9167H309.569V298.258H311.017V77.9167Z" fill="#CCCCCC"/>
</g>
<defs>
<clipPath id="clip0_23_78">
<rect width="630" height="377" fill="white"/>
</clipPath>
</defs>
</svg>
