<svg width="574" height="521" viewBox="0 0 574 521" fill="none" xmlns="http://www.w3.org/2000/svg">
<path d="M68.9381 476.449L55.769 488.565L66.2348 471.016C57.9893 456.074 44.5039 443.161 44.5039 443.161C44.5039 443.161 16.5264 469.946 16.5264 491.002C16.5264 512.057 29.0523 519.409 44.5039 519.409C59.9553 519.409 72.4812 512.057 72.4812 491.002C72.4811 486.315 71.0931 481.345 68.9381 476.449Z" fill="#EBEBED"/>
<path d="M51.5391 474.891C51.1843 474.912 50.8296 474.922 50.4748 474.922C50.3668 474.927 50.2537 474.927 50.1457 474.927C45.6733 474.927 41.2671 473.846 37.3029 471.777C33.3387 469.708 29.9341 466.711 27.3791 463.043C27.1735 463.346 26.9678 463.649 26.7673 463.957C29.4303 467.669 32.9399 470.693 37.0055 472.78C41.071 474.866 45.5755 475.954 50.1457 475.955C50.2897 475.955 50.4337 475.955 50.5776 475.949C50.9375 475.944 51.2923 475.934 51.647 475.919C57.1366 475.638 62.4291 473.783 66.8916 470.575C66.7271 470.272 66.5625 469.969 66.3928 469.666C62.0559 472.815 56.8937 474.631 51.5391 474.891Z" fill="#EBEBED"/>
<path d="M52.3823 489.221C52.0224 489.251 51.6625 489.272 51.3026 489.287C50.917 489.303 50.5314 489.313 50.1458 489.313C44.136 489.306 38.2901 487.354 33.4834 483.749C28.6767 480.144 25.1678 475.081 23.4819 469.316C23.2506 469.732 23.0192 470.144 22.7981 470.56C24.6976 476.311 28.3623 481.317 33.2717 484.868C38.181 488.419 44.0853 490.334 50.1458 490.341C50.5314 490.341 50.917 490.336 51.2975 490.315C51.6625 490.305 52.0224 490.284 52.3823 490.258C59.6519 489.69 66.4338 486.382 71.3545 481.005C71.2465 480.625 71.1231 480.25 70.9997 479.87C66.2468 485.287 59.5688 488.641 52.3823 489.221Z" fill="#EBEBED"/>
<path d="M311.359 521H0.815076C0.598904 521 0.391586 520.914 0.238729 520.761C0.0858732 520.609 0 520.401 0 520.185C0 519.969 0.0858732 519.762 0.238729 519.61C0.391586 519.457 0.598904 519.371 0.815076 519.371H311.359C311.575 519.371 311.782 519.457 311.935 519.61C312.088 519.762 312.174 519.969 312.174 520.185C312.174 520.401 312.088 520.609 311.935 520.761C311.782 520.914 311.575 521 311.359 521Z" fill="#CACACA"/>
<path d="M218.401 197.898C210.726 187.097 195.542 186.594 195.542 186.594C195.542 186.594 180.746 185.018 171.255 201.467C162.408 216.799 174.873 235.856 174.873 235.856C177.336 236.004 187.988 236.068 219.688 232.155L221.108 224.501L225.183 231.481C226.877 231.274 228.639 231.06 230.481 230.838C229.647 222.715 225.786 208.29 218.401 197.898Z" fill="#181823"/>
<path d="M236.492 349.009L234.459 279.119L220.616 285.171L227.296 349.766C225.856 350.882 224.815 352.433 224.329 354.187C223.843 355.942 223.937 357.807 224.597 359.504C225.257 361.201 226.449 362.639 227.993 363.604C229.538 364.57 231.354 365.011 233.17 364.861C234.986 364.712 236.704 363.98 238.07 362.775C239.436 361.57 240.376 359.956 240.749 358.174C241.123 356.392 240.91 354.537 240.143 352.885C239.376 351.234 238.095 349.874 236.492 349.009Z" fill="#FFB8B8"/>
<path d="M218.454 288.197C227.481 289.07 233.965 285.343 238.352 277.823L235.324 263.967C235.324 259.46 233.886 255.07 231.22 251.434C228.554 247.798 224.797 245.107 220.496 243.749L218.886 243.241L218.454 288.197Z" fill="#E6E6E6"/>
<path d="M143.15 268.979C143.032 268.979 142.914 268.967 142.798 268.943L126.098 268.661L126.062 268.246L126.062 268.228L127.448 233.843C127.463 233.492 127.548 233.147 127.697 232.829C127.846 232.51 128.056 232.224 128.316 231.986C128.575 231.749 128.879 231.565 129.21 231.445C129.541 231.325 129.892 231.271 130.243 231.287L143.619 231.883C143.971 231.899 144.315 231.983 144.634 232.132C144.953 232.281 145.239 232.491 145.476 232.751C145.714 233.01 145.898 233.314 146.018 233.644C146.138 233.974 146.192 234.325 146.176 234.676L144.86 267.336C144.842 267.778 144.654 268.195 144.335 268.501C144.017 268.807 143.592 268.978 143.15 268.979Z" fill="#080808"/>
<path d="M141.33 269.003C141.287 269.003 141.245 269.002 141.202 269L128.09 268.416C127.345 268.382 126.645 268.055 126.142 267.505C125.639 266.956 125.375 266.229 125.407 265.485L126.808 234.09C126.84 233.381 127.153 232.714 127.677 232.235C128.201 231.756 128.894 231.504 129.603 231.535L142.979 232.131C143.688 232.163 144.356 232.476 144.835 232.999C145.315 233.523 145.566 234.215 145.536 234.924L144.135 266.32C144.103 267.042 143.793 267.724 143.271 268.223C142.748 268.723 142.053 269.003 141.33 269.003Z" fill="#2F2E41"/>
<path d="M135.459 241.649C136.517 241.649 137.374 240.792 137.374 239.735C137.374 238.678 136.517 237.822 135.459 237.822C134.402 237.822 133.544 238.678 133.544 239.735C133.544 240.792 134.402 241.649 135.459 241.649Z" fill="#080808"/>
<path d="M151.378 277.522V290.143L139.178 270.931C140.045 269.449 140.409 267.727 140.217 266.022C140.024 264.316 139.285 262.718 138.109 261.466C136.934 260.215 135.385 259.377 133.693 259.077C132.002 258.777 130.259 259.031 128.724 259.803C127.19 260.574 125.946 261.82 125.178 263.355C124.41 264.891 124.159 266.633 124.463 268.323C124.768 270.012 125.61 271.558 126.865 272.73C128.121 273.902 129.721 274.636 131.429 274.825L148.483 305.022C149.373 306.597 150.742 307.847 152.392 308.59C154.041 309.333 155.885 309.53 157.655 309.153C159.424 308.775 161.027 307.844 162.23 306.493C163.433 305.142 164.172 303.442 164.341 301.642L166.451 279.151L151.378 277.522Z" fill="#FFB8B8"/>
<path d="M168.081 287.293C159.579 288.115 153.472 284.605 149.341 277.522L152.193 264.473C152.193 260.228 153.546 256.094 156.058 252.67C158.569 249.246 162.106 246.711 166.157 245.432L167.673 244.954L168.081 287.293Z" fill="#E6E6E6"/>
<path d="M187.792 513.434L178.489 511.925L179.885 475.353L193.614 477.579L187.792 513.434Z" fill="#FFB6B6"/>
<path d="M189.881 520.461L159.495 520.491L159.495 520.107C159.492 516.973 160.735 513.966 162.95 511.747C165.166 509.528 168.173 508.28 171.309 508.276L189.869 508.258L189.881 520.461Z" fill="#2F2E41"/>
<path d="M232.245 492.138L223.831 496.38L203.454 465.969L215.872 459.708L232.245 492.138Z" fill="#FFB6B6"/>
<path d="M238.506 499.205L211.377 512.883L211.204 512.54C209.791 509.742 209.549 506.497 210.53 503.52C211.511 500.543 213.635 498.077 216.435 496.665L233.005 488.31L238.506 499.205Z" fill="#2F2E41"/>
<path d="M194.5 232.701C203.636 232.701 211.042 225.3 211.042 216.17C211.042 207.041 203.636 199.64 194.5 199.64C185.364 199.64 177.958 207.041 177.958 216.17C177.958 225.3 185.364 232.701 194.5 232.701Z" fill="#FFB8B8"/>
<path d="M215.008 199.507L200.007 191.654L179.291 194.867L175.005 213.784C196.161 216.824 210.805 218.568 215.722 213.427L215.008 199.507Z" fill="#181823"/>
<path d="M167.821 319.536C167.821 319.536 155.211 345.308 169.182 383.446L207.774 481.782L226.223 470.883L207.417 428.548L222.715 376.728C226.237 364.984 227.323 352.645 225.906 340.467C224.804 331.354 222.245 322.087 216.679 317.415C203.583 306.422 167.821 319.536 167.821 319.536Z" fill="#181823"/>
<path d="M188.917 421.061L174.926 491.944L193.558 495.455L205.28 434.099L188.917 421.061Z" fill="#181823"/>
<path d="M206.701 240.772L185.313 241.057L166.592 245.36L167.701 320.294C167.701 320.294 201.55 329.864 216.417 316.63L226.224 246.495C220.721 243.387 214.114 241.598 206.701 240.772Z" fill="#E4E4E4"/>
<path d="M204.807 199.251C210.659 199.251 215.403 194.51 215.403 188.662C215.403 182.814 210.659 178.074 204.807 178.074C198.955 178.074 194.211 182.814 194.211 188.662C194.211 194.51 198.955 199.251 204.807 199.251Z" fill="#181823"/>
<path d="M194.211 186.219C194.21 184.653 194.557 183.106 195.227 181.69C195.897 180.275 196.872 179.025 198.084 178.032C199.295 177.038 200.712 176.326 202.233 175.946C203.753 175.567 205.339 175.529 206.875 175.835C205.519 175.196 204.042 174.851 202.542 174.825C201.042 174.799 199.554 175.092 198.176 175.683C196.798 176.275 195.561 177.152 194.548 178.258C193.535 179.363 192.768 180.67 192.298 182.094C191.829 183.517 191.667 185.024 191.824 186.515C191.981 188.006 192.453 189.446 193.209 190.741C193.965 192.035 194.987 193.155 196.209 194.025C197.43 194.895 198.822 195.496 200.294 195.788C198.476 194.934 196.939 193.581 195.861 191.886C194.784 190.192 194.212 188.226 194.211 186.219Z" fill="#181823"/>
<path d="M557.43 95.15H323.53C314.61 95.15 307.35 87.89 307.35 78.97C307.35 70.05 314.61 62.79 323.53 62.79H557.43C566.35 62.79 573.61 70.05 573.61 78.97C573.61 87.89 566.35 95.15 557.43 95.15ZM323.53 64.79C315.71 64.79 309.35 71.15 309.35 78.97C309.35 86.79 315.71 93.15 323.53 93.15H557.43C565.25 93.15 571.61 86.79 571.61 78.97C571.61 71.15 565.25 64.79 557.43 64.79H323.53Z" fill="#E2E3E4"/>
<path d="M557.43 284.5H323.53C314.88 284.5 307.85 277.47 307.85 268.82C307.85 260.17 314.88 253.14 323.53 253.14H557.43C566.08 253.14 573.11 260.17 573.11 268.82C573.11 277.47 566.08 284.5 557.43 284.5Z" fill="#181823"/>
<path d="M480.78 31.36H319.68C311.03 31.36 304 24.33 304 15.68C304 7.03 311.03 0 319.68 0H480.78C489.43 0 496.46 7.03 496.46 15.68C496.46 24.33 489.43 31.36 480.78 31.36Z" fill="#E2E3E4"/>
<path d="M557.43 158.43H323.53C314.61 158.43 307.35 151.17 307.35 142.25C307.35 133.33 314.61 126.07 323.53 126.07H557.43C566.35 126.07 573.61 133.33 573.61 142.25C573.61 151.17 566.35 158.43 557.43 158.43ZM323.53 128.07C315.71 128.07 309.35 134.43 309.35 142.25C309.35 150.07 315.71 156.43 323.53 156.43H557.43C565.25 156.43 571.61 150.07 571.61 142.25C571.61 134.43 565.25 128.07 557.43 128.07H323.53Z" fill="#E2E3E4"/>
<path d="M557.43 221.72H323.53C314.61 221.72 307.35 214.46 307.35 205.54C307.35 196.62 314.61 189.36 323.53 189.36H557.43C566.35 189.36 573.61 196.62 573.61 205.54C573.61 214.46 566.35 221.72 557.43 221.72ZM323.53 191.36C315.71 191.36 309.35 197.72 309.35 205.54C309.35 213.36 315.71 219.72 323.53 219.72H557.43C565.25 219.72 571.61 213.36 571.61 205.54C571.61 197.72 565.25 191.36 557.43 191.36H323.53Z" fill="#E2E3E4"/>
<path d="M376.79 51.17H315.49C314.026 51.17 312.84 52.3542 312.84 53.815C312.84 55.2758 314.026 56.46 315.49 56.46H376.79C378.254 56.46 379.44 55.2758 379.44 53.815C379.44 52.3542 378.254 51.17 376.79 51.17Z" fill="#E2E3E4"/>
<path d="M376.79 115.95H315.49C314.026 115.95 312.84 117.134 312.84 118.595C312.84 120.056 314.026 121.24 315.49 121.24H376.79C378.254 121.24 379.44 120.056 379.44 118.595C379.44 117.134 378.254 115.95 376.79 115.95Z" fill="#E2E3E4"/>
<path d="M376.79 180.74H315.49C314.026 180.74 312.84 181.924 312.84 183.385C312.84 184.846 314.026 186.03 315.49 186.03H376.79C378.254 186.03 379.44 184.846 379.44 183.385C379.44 181.924 378.254 180.74 376.79 180.74Z" fill="#E2E3E4"/>
</svg>
